<svg width="26" height="26" viewBox="0 0 26 26" fill="none" xmlns="http://www.w3.org/2000/svg">
<path d="M13.9001 0.537476C12.1119 0.407307 10.3167 0.663684 8.63643 1.28918C6.95617 1.91467 5.43028 2.89461 4.16251 4.16239C2.89473 5.43016 1.91479 6.95605 1.2893 8.6363C0.663806 10.3166 0.407429 12.1118 0.537598 13.9C0.987598 20.5125 6.7626 25.5 13.3876 25.5H18.0001C18.6876 25.5 19.2501 24.9375 19.2501 24.25C19.2501 23.5625 18.6876 23 18.0001 23H13.4126C8.7501 23 4.4751 19.975 3.3126 15.4625C1.4501 8.21248 8.2001 1.44998 15.4501 3.32498C19.9751 4.47498 23.0001 8.74998 23.0001 13.4125V14.7875C23.0001 15.775 22.1126 16.75 21.1251 16.75C20.1376 16.75 19.2501 15.775 19.2501 14.7875V13.225C19.2501 10.0875 17.0251 7.26248 13.9251 6.82498C12.9388 6.67832 11.9317 6.76939 10.9877 7.09062C10.0437 7.41185 9.19016 7.95394 8.49802 8.67175C7.80589 9.38956 7.29525 10.2623 7.0086 11.2174C6.72196 12.1724 6.66762 13.1822 6.8501 14.1625C7.06933 15.3437 7.62463 16.4366 8.4494 17.3102C9.27417 18.1837 10.3334 18.8008 11.5001 19.0875C13.8001 19.625 15.9876 18.8875 17.4251 17.425C18.5376 18.95 20.7626 19.75 22.8001 18.9375C24.4751 18.275 25.5001 16.5625 25.5001 14.7625V13.4C25.5001 6.76248 20.5126 0.987476 13.9001 0.537476ZM13.0001 16.75C10.9251 16.75 9.2501 15.075 9.2501 13C9.2501 10.925 10.9251 9.24998 13.0001 9.24998C15.0751 9.24998 16.7501 10.925 16.7501 13C16.7501 15.075 15.0751 16.75 13.0001 16.75Z" fill="#E8EBFF"/>
</svg>
