<svg width="30" height="30" viewBox="0 0 30 30" fill="none" xmlns="http://www.w3.org/2000/svg">
<path d="M15 0.125C6.78555 0.125 0.125 6.78555 0.125 15C0.125 23.2145 6.78555 29.875 15 29.875C23.2145 29.875 29.875 23.2145 29.875 15C29.875 6.78555 23.2145 0.125 15 0.125ZM22.1486 11.3377C22.1586 11.4938 22.1586 11.6564 22.1586 11.8158C22.1586 16.69 18.4465 22.3047 11.6631 22.3047C9.57129 22.3047 7.63223 21.6971 5.99863 20.6512C6.29746 20.6844 6.58301 20.6977 6.88848 20.6977C8.61504 20.6977 10.2021 20.1133 11.4672 19.1238C9.84688 19.0906 8.48555 18.0281 8.0207 16.5672C8.58848 16.6502 9.0998 16.6502 9.68418 16.5008C8.84987 16.3313 8.09998 15.8782 7.56189 15.2184C7.0238 14.5587 6.73072 13.733 6.73242 12.8816V12.8352C7.22051 13.1107 7.79492 13.2801 8.3959 13.3033C7.89069 12.9666 7.47636 12.5105 7.18967 11.9753C6.90297 11.4401 6.75275 10.8425 6.75234 10.2354C6.75234 9.54805 6.93164 8.92051 7.25371 8.37598C8.17975 9.51596 9.33532 10.4483 10.6453 11.1125C11.9553 11.7766 13.3903 12.1577 14.8572 12.2309C14.3359 9.72402 16.2086 7.69531 18.4598 7.69531C19.5223 7.69531 20.4785 8.14023 21.1525 8.85742C21.9859 8.70137 22.7828 8.38926 23.4934 7.9709C23.2178 8.82422 22.64 9.54473 21.873 9.99961C22.6168 9.91992 23.334 9.71406 23.998 9.4252C23.4967 10.1623 22.8691 10.8164 22.1486 11.3377Z" fill="#E8EBFF"/>
</svg>
