<svg width="30" height="30" viewBox="0 0 30 30" fill="none" xmlns="http://www.w3.org/2000/svg">
<path d="M15 0C11.0218 0 7.20644 1.58035 4.3934 4.3934C1.58035 7.20644 0 11.0218 0 15C0 18.9782 1.58035 22.7936 4.3934 25.6066C7.20644 28.4196 11.0218 30 15 30C18.9782 30 22.7936 28.4196 25.6066 25.6066C28.4196 22.7936 30 18.9782 30 15C30 11.0218 28.4196 7.20644 25.6066 4.3934C22.7936 1.58035 18.9782 0 15 0V0ZM18.9538 27.2288H18.8375C18.7502 27.2337 18.6628 27.2207 18.5807 27.1906C18.4985 27.1605 18.4235 27.1139 18.36 27.0537C18.3014 26.9918 18.2557 26.9187 18.2256 26.8389C18.1956 26.759 18.1818 26.674 18.185 26.5887V24.8312C18.1925 24.2475 18.1975 23.6562 18.1975 23.0612C18.1955 22.6262 18.1319 22.1935 18.0087 21.7762C17.8921 21.3544 17.657 20.9748 17.3312 20.6825C18.2025 20.5984 19.059 20.4005 19.8787 20.0938C20.5703 19.8308 21.1958 19.4195 21.7113 18.8888C22.22 18.355 22.5987 17.71 22.8175 17.0062C23.0836 16.1444 23.2102 15.2456 23.1925 14.3438C23.1974 13.7141 23.0872 13.0888 22.8675 12.4987C22.6442 11.904 22.3066 11.3587 21.8738 10.8938C21.9672 10.6592 22.0351 10.4153 22.0762 10.1663C22.1175 9.91625 22.1388 9.66375 22.1388 9.41125C22.1388 9.08625 22.1012 8.76125 22.0263 8.445C21.9581 8.12063 21.8658 7.80182 21.75 7.49125C21.7058 7.47401 21.6587 7.46552 21.6112 7.46625H21.4738C21.1863 7.46875 20.9037 7.51625 20.6312 7.605C20.3311 7.69262 20.0374 7.80122 19.7525 7.93C19.4691 8.05702 19.1933 8.20017 18.9263 8.35875C18.6575 8.5175 18.42 8.67 18.21 8.81125C16.1072 8.22516 13.8841 8.22516 11.7812 8.81125C11.5467 8.65447 11.3083 8.50359 11.0662 8.35875C10.7955 8.19884 10.5149 8.05606 10.2262 7.93125C9.94208 7.7982 9.64731 7.68907 9.345 7.605C9.07787 7.51675 8.7988 7.46996 8.5175 7.46625H8.38C8.33298 7.46559 8.28628 7.47408 8.2425 7.49125C8.12508 7.80225 8.02902 8.12091 7.955 8.445C7.8875 8.7625 7.855 9.08625 7.85375 9.41125C7.85375 9.66375 7.875 9.91625 7.9175 10.1663C7.95875 10.415 8.025 10.6588 8.1175 10.8938C7.68574 11.3594 7.3494 11.9051 7.1275 12.5C6.9066 13.0899 6.79519 13.7151 6.79875 14.345C6.78127 15.242 6.90443 16.1362 7.16375 16.995C7.39 17.6987 7.7675 18.345 8.26875 18.89C8.7875 19.4175 9.4125 19.8275 10.1013 20.095C10.9175 20.4075 11.7725 20.6075 12.6425 20.69C12.3996 20.9102 12.2069 21.18 12.0775 21.4812C11.9544 21.7792 11.8704 22.0918 11.8275 22.4113C11.3689 22.6308 10.8673 22.7461 10.3587 22.7487C9.88651 22.7676 9.42044 22.6364 9.0275 22.3738C8.65055 22.0944 8.33132 21.7446 8.0875 21.3438C7.97838 21.1754 7.85635 21.0157 7.7225 20.8663C7.5813 20.7091 7.42561 20.5655 7.2575 20.4375C7.0918 20.3137 6.91016 20.2128 6.7175 20.1375C6.52794 20.0544 6.32323 20.0114 6.11625 20.0113C6.06625 20.0125 6.01625 20.0175 5.96625 20.0237C5.89797 20.0235 5.82993 20.0319 5.76375 20.0487C5.70559 20.064 5.65057 20.0894 5.60125 20.1238C5.57883 20.1361 5.56007 20.1542 5.5469 20.1761C5.53373 20.1981 5.5266 20.2231 5.52625 20.2487C5.5315 20.3089 5.54989 20.3672 5.58013 20.4194C5.61037 20.4717 5.65172 20.5167 5.70125 20.5513C5.8175 20.6437 5.91375 20.715 5.99125 20.765L6.02875 20.7912C6.195 20.92 6.355 21.0588 6.50625 21.2075C6.64625 21.33 6.7725 21.4688 6.88125 21.62C6.99375 21.7687 7.09125 21.9275 7.17 22.0963C7.26125 22.2638 7.3575 22.4562 7.45875 22.675C7.69375 23.2675 8.11125 23.7687 8.65125 24.1063C9.2175 24.41 9.8525 24.5612 10.4963 24.545C10.7138 24.545 10.9325 24.5325 11.1487 24.5075C11.3637 24.4725 11.5775 24.4362 11.7925 24.3937V26.5725C11.7964 26.6603 11.7817 26.748 11.7494 26.8298C11.7171 26.9116 11.6679 26.9856 11.605 27.0471C11.5421 27.1086 11.467 27.1561 11.3845 27.1865C11.302 27.217 11.214 27.2296 11.1263 27.2237H11.0487C8.1338 26.2821 5.65083 24.3306 4.04696 21.7208C2.44309 19.1109 1.82371 16.0142 2.30035 12.9882C2.777 9.96225 4.31834 7.20588 6.64684 5.21545C8.97533 3.22502 11.938 2.13134 15.0013 2.13134C18.0645 2.13134 21.0272 3.22502 23.3557 5.21545C25.6842 7.20588 27.2255 9.96225 27.7021 12.9882C28.1788 16.0142 27.5594 19.1109 25.9555 21.7208C24.3517 24.3306 21.8687 26.2821 18.9538 27.2237V27.23V27.2288Z" fill="#E8EBFF"/>
</svg>
