<svg width="70" height="70" viewBox="0 0 70 70" fill="none" xmlns="http://www.w3.org/2000/svg">
<path fill-rule="evenodd" clip-rule="evenodd" d="M35 66.0284C52.1365 66.0284 66.0284 52.1365 66.0284 35C66.0284 17.8635 52.1365 3.97163 35 3.97163C17.8635 3.97163 3.97163 17.8635 3.97163 35C3.97163 52.1365 17.8635 66.0284 35 66.0284ZM35 70C54.33 70 70 54.33 70 35C70 15.67 54.33 0 35 0C15.67 0 0 15.67 0 35C0 54.33 15.67 70 35 70Z" fill="#E8EBFF"/>
<path d="M27.2058 16.4385C27.1589 16.4385 27.2293 16.1783 27.4169 15.658C27.6515 15.0904 28.1675 14.5465 28.965 14.0262C29.7624 13.5059 31.0759 13.2221 32.9054 13.1748C34.5472 13.1275 35.7903 13.3403 36.6347 13.8133C37.4791 14.239 38.042 14.6647 38.3235 15.0904C38.6518 15.5161 38.816 15.729 38.816 15.729C38.816 15.729 39.074 16.3439 39.59 17.5737C40.106 18.8035 40.8097 20.4353 41.701 22.4692C42.5922 24.4558 43.5774 26.6789 44.6563 29.1385C45.7352 31.598 46.8141 34.1049 47.8931 36.6591C49.0189 39.166 50.0509 41.531 50.9891 43.7541C51.9742 45.9299 52.7951 47.7746 53.4519 49.2882C54.1086 50.7545 54.5308 51.6768 54.7184 52.0552C55.1406 52.9539 55.3752 53.5924 55.4221 53.9708C55.469 54.3492 55.4455 54.6094 55.3517 54.7513C55.3048 54.8459 55.2813 54.9168 55.2813 54.9641C54.953 55.6263 54.2962 56.1939 53.3111 56.6669C52.3729 57.1872 51.2237 57.471 49.8633 57.5183C47.9869 57.5656 46.6265 57.3528 45.7821 56.8798C44.9377 56.4541 44.3748 56.0047 44.0934 55.5317C43.8588 55.106 43.765 54.9168 43.8119 54.9641C43.8119 54.9641 43.5539 54.4202 43.0379 53.3323C42.5688 52.2444 42.0059 50.9437 41.3491 49.4301C40.6924 47.8692 40.0826 46.4502 39.5197 45.1731C39.5197 45.1731 39.1913 45.1731 38.5346 45.1731C37.9247 45.1731 37.1976 45.1731 36.3532 45.1731C35.5089 45.1731 34.7583 45.1731 34.1016 45.1731C33.4917 45.1731 33.1868 45.1731 33.1868 45.1731C32.9992 45.8353 32.8116 46.663 32.6239 47.6563C32.4363 48.6023 32.2721 49.4537 32.1314 50.2105C31.9906 50.9673 31.9203 51.3457 31.9203 51.3457C31.9203 51.3457 31.803 51.6295 31.5684 52.1971C31.3808 52.7647 30.8413 53.3323 29.9501 53.8999C29.0588 54.4675 27.5811 54.7513 25.5171 54.7513C23.9691 54.7513 22.7963 54.5857 21.9988 54.2546C21.2483 53.8762 20.7323 53.4505 20.4508 52.9775C20.2163 52.5045 20.099 52.1025 20.099 51.7714C20.099 51.393 20.099 51.2038 20.099 51.2038C20.1928 50.7308 20.3805 49.7612 20.6619 48.2949C20.9903 46.7813 21.3656 44.9839 21.7878 42.9027C22.2568 40.7742 22.7259 38.5275 23.195 36.1625C23.7111 33.7975 24.2036 31.4561 24.6727 29.1385C25.1418 26.8208 25.564 24.7159 25.9393 22.8239C26.3145 20.8846 26.6195 19.3474 26.854 18.2122C27.0886 17.0297 27.2058 16.4385 27.2058 16.4385ZM34.5941 27.6485C34.5472 27.8377 34.5003 28.2161 34.4534 28.7837L34.1719 30.7703C34.0781 31.8582 33.9608 33.017 33.8201 34.2468C33.6794 35.4766 33.5387 36.6355 33.3979 37.7234C33.3041 38.291 33.2337 38.6457 33.1868 38.7876H34.1016C34.6645 38.7876 35.2743 38.764 35.9311 38.7167C36.5878 38.6694 37.1742 38.6457 37.6902 38.6457C37.5025 38.2673 37.3384 37.7943 37.1976 37.2267C37.1038 36.6118 36.9865 36.0442 36.8458 35.5239C36.5643 34.436 36.236 33.3008 35.8607 32.1183C35.5323 30.9359 35.2274 29.8243 34.946 28.7837C34.8052 28.2161 34.6879 27.8377 34.5941 27.6485Z" fill="#E8EBFF"/>
<mask id="mask0_208_97" style="mask-type:alpha" maskUnits="userSpaceOnUse" x="20" y="13" width="36" height="45">
<path d="M27.2058 16.4385C27.1589 16.4385 27.2293 16.1783 27.4169 15.658C27.6515 15.0904 28.1675 14.5465 28.965 14.0262C29.7624 13.5059 31.0759 13.2221 32.9054 13.1748C34.5472 13.1275 35.7903 13.3403 36.6347 13.8133C37.4791 14.239 38.042 14.6647 38.3235 15.0904C38.6518 15.5161 38.816 15.729 38.816 15.729C38.816 15.729 39.074 16.3439 39.59 17.5737C40.106 18.8035 40.8097 20.4353 41.701 22.4692C42.5922 24.4558 43.5774 26.6789 44.6563 29.1385C45.7352 31.598 46.8141 34.1049 47.8931 36.6591C49.0189 39.166 50.0509 41.531 50.9891 43.7541C51.9742 45.9299 52.7951 47.7746 53.4519 49.2882C54.1086 50.7545 54.5308 51.6768 54.7184 52.0552C55.1406 52.9539 55.3752 53.5924 55.4221 53.9708C55.469 54.3492 55.4455 54.6094 55.3517 54.7513C55.3048 54.8459 55.2813 54.9168 55.2813 54.9641C54.953 55.6263 54.2962 56.1939 53.3111 56.6669C52.3729 57.1872 51.2237 57.471 49.8633 57.5183C47.9869 57.5656 46.6265 57.3528 45.7821 56.8798C44.9377 56.4541 44.3748 56.0047 44.0934 55.5317C43.8588 55.106 43.765 54.9168 43.8119 54.9641C43.8119 54.9641 43.5539 54.4202 43.0379 53.3323C42.5688 52.2444 42.0059 50.9437 41.3491 49.4301C40.6924 47.8692 40.0826 46.4502 39.5197 45.1731C39.5197 45.1731 39.1913 45.1731 38.5346 45.1731C37.9247 45.1731 37.1976 45.1731 36.3532 45.1731C35.5089 45.1731 34.7583 45.1731 34.1016 45.1731C33.4917 45.1731 33.1868 45.1731 33.1868 45.1731C32.9992 45.8353 32.8116 46.663 32.6239 47.6563C32.4363 48.6023 32.2721 49.4537 32.1314 50.2105C31.9906 50.9673 31.9203 51.3457 31.9203 51.3457C31.9203 51.3457 31.803 51.6295 31.5684 52.1971C31.3808 52.7647 30.8413 53.3323 29.9501 53.8999C29.0588 54.4675 27.5811 54.7513 25.5171 54.7513C23.9691 54.7513 22.7963 54.5857 21.9988 54.2546C21.2483 53.8762 20.7323 53.4505 20.4508 52.9775C20.2163 52.5045 20.099 52.1025 20.099 51.7714C20.099 51.393 20.099 51.2038 20.099 51.2038C20.1928 50.7308 20.3805 49.7612 20.6619 48.2949C20.9903 46.7813 21.3656 44.9839 21.7878 42.9027C22.2568 40.7742 22.7259 38.5275 23.195 36.1625C23.7111 33.7975 24.2036 31.4561 24.6727 29.1385C25.1418 26.8208 25.564 24.7159 25.9393 22.8239C26.3145 20.8846 26.6195 19.3474 26.854 18.2122C27.0886 17.0297 27.2058 16.4385 27.2058 16.4385ZM34.5941 27.6485C34.5472 27.8377 34.5003 28.2161 34.4534 28.7837L34.1719 30.7703C34.0781 31.8582 33.9608 33.017 33.8201 34.2468C33.6794 35.4766 33.5387 36.6355 33.3979 37.7234C33.3041 38.291 33.2337 38.6457 33.1868 38.7876H34.1016C34.6645 38.7876 35.2743 38.764 35.9311 38.7167C36.5878 38.6694 37.1742 38.6457 37.6902 38.6457C37.5025 38.2673 37.3384 37.7943 37.1976 37.2267C37.1038 36.6118 36.9865 36.0442 36.8458 35.5239C36.5643 34.436 36.236 33.3008 35.8607 32.1183C35.5323 30.9359 35.2274 29.8243 34.946 28.7837C34.8052 28.2161 34.6879 27.8377 34.5941 27.6485Z" fill="black"/>
</mask>
<g mask="url(#mask0_208_97)">
<path fill-rule="evenodd" clip-rule="evenodd" d="M5.9032 31.9973C7.46173 43.4789 13.2734 53.249 21.4525 56.485C32.9407 61.0303 44.7491 50.9636 47.8274 34.0005C50.2597 20.5968 46.5134 6.89781 39.1664 -0.503418C42.0944 4.86758 43.6071 11.5453 43.0659 18.4893C41.894 33.5273 31.5336 44.1192 19.9253 42.1468C14.2438 41.1815 9.31629 37.3852 5.9032 31.9973Z" fill="url(#paint0_linear_208_97)"/>
</g>
<defs>
<linearGradient id="paint0_linear_208_97" x1="14.2594" y1="12.3386" x2="52.7512" y2="0.110067" gradientUnits="userSpaceOnUse">
<stop stop-color="#818CF8"/>
<stop offset="1" stop-color="#4338CA"/>
<stop offset="1" stop-color="#4338CA"/>
</linearGradient>
</defs>
</svg>
