<svg width="208" height="208" viewBox="0 0 208 208" fill="none" xmlns="http://www.w3.org/2000/svg">
<path fill-rule="evenodd" clip-rule="evenodd" d="M104 196.199C154.92 196.199 196.199 154.92 196.199 104C196.199 53.0801 154.92 11.8014 104 11.8014C53.0801 11.8014 11.8014 53.0801 11.8014 104C11.8014 154.92 53.0801 196.199 104 196.199ZM104 208C161.438 208 208 161.438 208 104C208 46.5624 161.438 0 104 0C46.5624 0 0 46.5624 0 104C0 161.438 46.5624 208 104 208Z" fill="#0F172A"/>
<path d="M78.7808 46.7863C78.6415 46.7863 78.8505 46.0133 79.4081 44.4673C80.105 42.7807 81.6383 41.1644 84.0079 39.6184C86.3776 38.0723 90.2804 37.229 95.7166 37.0885C100.595 36.948 104.289 37.5804 106.798 38.9859C109.307 40.2508 110.98 41.5158 111.816 42.7807C112.792 44.0456 113.28 44.6781 113.28 44.6781C113.28 44.6781 114.046 46.5052 115.58 50.1594C117.113 53.8137 119.204 58.6626 121.852 64.7062C124.5 70.6092 127.428 77.2149 130.634 84.5234C133.84 91.8319 137.046 99.2809 140.251 106.871C143.597 114.32 146.663 121.347 149.451 127.953C152.378 134.418 154.818 139.899 156.769 144.397C158.721 148.754 159.975 151.494 160.533 152.619C161.787 155.289 162.484 157.187 162.623 158.311C162.763 159.435 162.693 160.208 162.414 160.63C162.275 160.911 162.205 161.122 162.205 161.263C161.23 163.23 159.278 164.917 156.351 166.322C153.563 167.868 150.148 168.712 146.106 168.852C140.53 168.993 136.488 168.36 133.979 166.955C131.47 165.69 129.797 164.355 128.961 162.949C128.264 161.684 127.985 161.122 128.125 161.263C128.125 161.263 127.358 159.646 125.825 156.414C124.431 153.181 122.758 149.316 120.807 144.818C118.855 140.18 117.043 135.964 115.371 132.169C115.371 132.169 114.395 132.169 112.443 132.169C110.631 132.169 108.471 132.169 105.962 132.169C103.453 132.169 101.222 132.169 99.271 132.169C97.459 132.169 96.553 132.169 96.553 132.169C95.9954 134.137 95.4378 136.596 94.8803 139.548C94.3227 142.359 93.8349 144.889 93.4167 147.138C92.9985 149.386 92.7895 150.511 92.7895 150.511C92.7895 150.511 92.441 151.354 91.744 153.041C91.1865 154.727 89.5835 156.414 86.9351 158.1C84.2867 159.787 79.896 160.63 73.7628 160.63C69.163 160.63 65.6783 160.138 63.3087 159.154C61.0784 158.03 59.5451 156.765 58.7088 155.36C58.0119 153.954 57.6634 152.759 57.6634 151.776C57.6634 150.651 57.6634 150.089 57.6634 150.089C57.9422 148.684 58.4997 145.802 59.3361 141.445C60.3118 136.948 61.4269 131.607 62.6814 125.423C64.0753 119.098 65.4692 112.422 66.8631 105.395C68.3964 98.3674 69.8599 91.4103 71.2538 84.5234C72.6477 77.6366 73.9022 71.3822 75.0173 65.7603C76.1325 59.9978 77.0385 55.43 77.7354 52.0568C78.4324 48.5432 78.7808 46.7863 78.7808 46.7863ZM100.735 80.0962C100.595 80.6583 100.456 81.7827 100.316 83.4693L99.4801 89.3723C99.2014 92.6049 98.8529 96.0483 98.4347 99.7026C98.0165 103.357 97.5984 106.8 97.1802 110.033C96.9014 111.719 96.6924 112.774 96.553 113.195H99.271C100.944 113.195 102.756 113.125 104.707 112.984C106.659 112.844 108.401 112.774 109.934 112.774C109.377 111.649 108.889 110.244 108.471 108.557C108.192 106.73 107.843 105.043 107.425 103.497C106.589 100.265 105.613 96.8916 104.498 93.3779C103.522 89.8642 102.616 86.5614 101.78 83.4693C101.362 81.7827 101.013 80.6583 100.735 80.0962Z" fill="#0F172A"/>
<mask id="mask0_212_162" style="mask-type:alpha" maskUnits="userSpaceOnUse" x="57" y="37" width="106" height="132">
<path d="M78.7808 46.7863C78.6415 46.7863 78.8505 46.0133 79.4081 44.4673C80.105 42.7807 81.6383 41.1644 84.0079 39.6184C86.3776 38.0723 90.2804 37.229 95.7166 37.0885C100.595 36.948 104.289 37.5804 106.798 38.9859C109.307 40.2508 110.98 41.5158 111.816 42.7807C112.792 44.0456 113.28 44.6781 113.28 44.6781C113.28 44.6781 114.046 46.5052 115.58 50.1594C117.113 53.8137 119.204 58.6626 121.852 64.7062C124.5 70.6092 127.428 77.2149 130.634 84.5234C133.84 91.8319 137.046 99.2809 140.251 106.871C143.597 114.32 146.663 121.347 149.451 127.953C152.378 134.418 154.818 139.899 156.769 144.397C158.721 148.754 159.975 151.494 160.533 152.619C161.787 155.289 162.484 157.187 162.623 158.311C162.763 159.435 162.693 160.208 162.414 160.63C162.275 160.911 162.205 161.122 162.205 161.263C161.23 163.23 159.278 164.917 156.351 166.322C153.563 167.868 150.148 168.712 146.106 168.852C140.53 168.993 136.488 168.36 133.979 166.955C131.47 165.69 129.797 164.355 128.961 162.949C128.264 161.684 127.985 161.122 128.125 161.263C128.125 161.263 127.358 159.646 125.825 156.414C124.431 153.181 122.758 149.316 120.807 144.818C118.855 140.18 117.043 135.964 115.371 132.169C115.371 132.169 114.395 132.169 112.443 132.169C110.631 132.169 108.471 132.169 105.962 132.169C103.453 132.169 101.222 132.169 99.271 132.169C97.459 132.169 96.553 132.169 96.553 132.169C95.9954 134.137 95.4378 136.596 94.8803 139.548C94.3227 142.359 93.8349 144.889 93.4167 147.138C92.9985 149.386 92.7895 150.511 92.7895 150.511C92.7895 150.511 92.441 151.354 91.744 153.041C91.1865 154.727 89.5835 156.414 86.9351 158.1C84.2867 159.787 79.896 160.63 73.7628 160.63C69.163 160.63 65.6783 160.138 63.3087 159.154C61.0784 158.03 59.5451 156.765 58.7088 155.36C58.0119 153.954 57.6634 152.759 57.6634 151.776C57.6634 150.651 57.6634 150.089 57.6634 150.089C57.9422 148.684 58.4997 145.802 59.3361 141.445C60.3118 136.948 61.4269 131.607 62.6814 125.423C64.0753 119.098 65.4692 112.422 66.8631 105.395C68.3964 98.3674 69.8599 91.4103 71.2538 84.5234C72.6477 77.6366 73.9022 71.3822 75.0173 65.7603C76.1325 59.9978 77.0385 55.43 77.7354 52.0568C78.4324 48.5432 78.7808 46.7863 78.7808 46.7863ZM100.735 80.0962C100.595 80.6583 100.456 81.7827 100.316 83.4693L99.4801 89.3723C99.2014 92.6049 98.8529 96.0483 98.4347 99.7026C98.0165 103.357 97.5984 106.8 97.1802 110.033C96.9014 111.719 96.6924 112.774 96.553 113.195H99.271C100.944 113.195 102.756 113.125 104.707 112.984C106.659 112.844 108.401 112.774 109.934 112.774C109.377 111.649 108.889 110.244 108.471 108.557C108.192 106.73 107.843 105.043 107.425 103.497C106.589 100.265 105.613 96.8916 104.498 93.3779C103.522 89.8642 102.616 86.5614 101.78 83.4693C101.362 81.7827 101.013 80.6583 100.735 80.0962Z" fill="url(#paint0_linear_212_162)"/>
</mask>
<g mask="url(#mask0_212_162)">
<path fill-rule="evenodd" clip-rule="evenodd" d="M19.0476 110.791C26.4354 136.847 41.6234 157.752 61.5317 165.628C95.6681 179.134 130.756 149.222 139.903 98.8169C149.05 48.4122 128.792 -3.39763 94.6552 -16.9035C94.4327 -16.9916 94.2101 -17.0778 93.9874 -17.1622C111.804 -0.0409196 122.503 28.441 120.152 58.6143C116.67 103.299 85.8845 134.772 51.3915 128.911C39.1431 126.83 28.0743 120.321 19.0476 110.791Z" fill="url(#paint1_linear_212_162)"/>
</g>
<defs>
<linearGradient id="paint0_linear_212_162" x1="8.28376" y1="-102.055" x2="282.075" y2="-69.057" gradientUnits="userSpaceOnUse">
<stop offset="0.130208" stop-color="#1654E2"/>
<stop offset="0.828125" stop-color="#2BCCFF"/>
</linearGradient>
<linearGradient id="paint1_linear_212_162" x1="43.149" y1="23.9716" x2="156.128" y2="-8.34836" gradientUnits="userSpaceOnUse">
<stop stop-color="#818CF8"/>
<stop offset="1" stop-color="#4338CA"/>
<stop offset="1" stop-color="#4338CA"/>
</linearGradient>
</defs>
</svg>
